<svg class="rich-terminal" viewBox="0 0 1238 782.0" xmlns="http://www.w3.org/2000/svg">
    <!-- Generated with Rich https://www.textualize.io -->
    <style>

    @font-face {
        font-family: "Fira Code";
        src: local("FiraCode-Regular"),
                url("https://cdnjs.cloudflare.com/ajax/libs/firacode/6.2.0/woff2/FiraCode-Regular.woff2") format("woff2"),
                url("https://cdnjs.cloudflare.com/ajax/libs/firacode/6.2.0/woff/FiraCode-Regular.woff") format("woff");
        font-style: normal;
        font-weight: 400;
    }
    @font-face {
        font-family: "Fira Code";
        src: local("FiraCode-Bold"),
                url("https://cdnjs.cloudflare.com/ajax/libs/firacode/6.2.0/woff2/FiraCode-Bold.woff2") format("woff2"),
                url("https://cdnjs.cloudflare.com/ajax/libs/firacode/6.2.0/woff/FiraCode-Bold.woff") format("woff");
        font-style: bold;
        font-weight: 700;
    }

    .terminal-matrix {
        font-family: Fira Code, monospace;
        font-size: 20px;
        line-height: 24.4px;
        font-variant-east-asian: full-width;
    }

    .terminal-title {
        font-size: 18px;
        font-weight: bold;
        font-family: arial;
    }

    .terminal-r1 { fill: #c5c8c6 }
.terminal-r2 { fill: #a9b1d6 }
.terminal-r3 { fill: #6f758f }
.terminal-r4 { fill: #dfaf68;font-weight: bold }
.terminal-r5 { fill: #a3a3a8 }
.terminal-r6 { fill: #b8b4b8 }
.terminal-r7 { fill: #f9a4b4 }
.terminal-r8 { fill: #d2bcf9 }
.terminal-r9 { fill: #ffffff }
.terminal-r10 { fill: #ffffff;font-weight: bold }
.terminal-r11 { fill: #eaca9b }
.terminal-r12 { fill: #b5b7b7 }
.terminal-r13 { fill: #bede9c }
.terminal-r14 { fill: #b1b1b5 }
.terminal-r15 { fill: #9ece6a;font-weight: bold }
.terminal-r16 { fill: #f6768e }
    </style>

    <defs>
    <clipPath id="terminal-clip-terminal">
      <rect x="0" y="0" width="1219.0" height="731.0" />
    </clipPath>
    <clipPath id="terminal-line-0">
    <rect x="0" y="1.5" width="1220" height="24.65"/>
            </clipPath>
<clipPath id="terminal-line-1">
    <rect x="0" y="25.9" width="1220" height="24.65"/>
            </clipPath>
<clipPath id="terminal-line-2">
    <rect x="0" y="50.3" width="1220" height="24.65"/>
            </clipPath>
<clipPath id="terminal-line-3">
    <rect x="0" y="74.7" width="1220" height="24.65"/>
            </clipPath>
<clipPath id="terminal-line-4">
    <rect x="0" y="99.1" width="1220" height="24.65"/>
            </clipPath>
<clipPath id="terminal-line-5">
    <rect x="0" y="123.5" width="1220" height="24.65"/>
            </clipPath>
<clipPath id="terminal-line-6">
    <rect x="0" y="147.9" width="1220" height="24.65"/>
            </clipPath>
<clipPath id="terminal-line-7">
    <rect x="0" y="172.3" width="1220" height="24.65"/>
            </clipPath>
<clipPath id="terminal-line-8">
    <rect x="0" y="196.7" width="1220" height="24.65"/>
            </clipPath>
<clipPath id="terminal-line-9">
    <rect x="0" y="221.1" width="1220" height="24.65"/>
            </clipPath>
<clipPath id="terminal-line-10">
    <rect x="0" y="245.5" width="1220" height="24.65"/>
            </clipPath>
<clipPath id="terminal-line-11">
    <rect x="0" y="269.9" width="1220" height="24.65"/>
            </clipPath>
<clipPath id="terminal-line-12">
    <rect x="0" y="294.3" width="1220" height="24.65"/>
            </clipPath>
<clipPath id="terminal-line-13">
    <rect x="0" y="318.7" width="1220" height="24.65"/>
            </clipPath>
<clipPath id="terminal-line-14">
    <rect x="0" y="343.1" width="1220" height="24.65"/>
            </clipPath>
<clipPath id="terminal-line-15">
    <rect x="0" y="367.5" width="1220" height="24.65"/>
            </clipPath>
<clipPath id="terminal-line-16">
    <rect x="0" y="391.9" width="1220" height="24.65"/>
            </clipPath>
<clipPath id="terminal-line-17">
    <rect x="0" y="416.3" width="1220" height="24.65"/>
            </clipPath>
<clipPath id="terminal-line-18">
    <rect x="0" y="440.7" width="1220" height="24.65"/>
            </clipPath>
<clipPath id="terminal-line-19">
    <rect x="0" y="465.1" width="1220" height="24.65"/>
            </clipPath>
<clipPath id="terminal-line-20">
    <rect x="0" y="489.5" width="1220" height="24.65"/>
            </clipPath>
<clipPath id="terminal-line-21">
    <rect x="0" y="513.9" width="1220" height="24.65"/>
            </clipPath>
<clipPath id="terminal-line-22">
    <rect x="0" y="538.3" width="1220" height="24.65"/>
            </clipPath>
<clipPath id="terminal-line-23">
    <rect x="0" y="562.7" width="1220" height="24.65"/>
            </clipPath>
<clipPath id="terminal-line-24">
    <rect x="0" y="587.1" width="1220" height="24.65"/>
            </clipPath>
<clipPath id="terminal-line-25">
    <rect x="0" y="611.5" width="1220" height="24.65"/>
            </clipPath>
<clipPath id="terminal-line-26">
    <rect x="0" y="635.9" width="1220" height="24.65"/>
            </clipPath>
<clipPath id="terminal-line-27">
    <rect x="0" y="660.3" width="1220" height="24.65"/>
            </clipPath>
<clipPath id="terminal-line-28">
    <rect x="0" y="684.7" width="1220" height="24.65"/>
            </clipPath>
    </defs>

    <rect fill="#292929" stroke="rgba(255,255,255,0.35)" stroke-width="1" x="1" y="1" width="1236" height="780" rx="8"/><text class="terminal-title" fill="#c5c8c6" text-anchor="middle" x="618" y="27">EditApprovalApp</text>
            <g transform="translate(26,22)">
            <circle cx="0" cy="0" r="7" fill="#ff5f57"/>
            <circle cx="22" cy="0" r="7" fill="#febc2e"/>
            <circle cx="44" cy="0" r="7" fill="#28c840"/>
            </g>
        
    <g transform="translate(9, 41)" clip-path="url(#terminal-clip-terminal)">
    <rect fill="#1a1b26" x="0" y="1.5" width="1220" height="24.65" shape-rendering="crispEdges"/><rect fill="#1a1b26" x="0" y="25.9" width="0" height="24.65" shape-rendering="crispEdges"/><rect fill="#1a1b26" x="0" y="25.9" width="1220" height="24.65" shape-rendering="crispEdges"/><rect fill="#1a1b26" x="0" y="50.3" width="1220" height="24.65" shape-rendering="crispEdges"/><rect fill="#1a1b26" x="0" y="74.7" width="12.2" height="24.65" shape-rendering="crispEdges"/><rect fill="#1a1b26" x="12.2" y="74.7" width="12.2" height="24.65" shape-rendering="crispEdges"/><rect fill="#1a1b26" x="24.4" y="74.7" width="341.6" height="24.65" shape-rendering="crispEdges"/><rect fill="#1a1b26" x="366" y="74.7" width="841.8" height="24.65" shape-rendering="crispEdges"/><rect fill="#1a1b26" x="1207.8" y="74.7" width="12.2" height="24.65" shape-rendering="crispEdges"/><rect fill="#1a1b26" x="0" y="99.1" width="12.2" height="24.65" shape-rendering="crispEdges"/><rect fill="#1a1b26" x="12.2" y="99.1" width="12.2" height="24.65" shape-rendering="crispEdges"/><rect fill="#1a1b26" x="24.4" y="99.1" width="244" height="24.65" shape-rendering="crispEdges"/><rect fill="#1a1b26" x="268.4" y="99.1" width="939.4" height="24.65" shape-rendering="crispEdges"/><rect fill="#1a1b26" x="1207.8" y="99.1" width="12.2" height="24.65" shape-rendering="crispEdges"/><rect fill="#1a1b26" x="0" y="123.5" width="12.2" height="24.65" shape-rendering="crispEdges"/><rect fill="#1a1b26" x="12.2" y="123.5" width="12.2" height="24.65" shape-rendering="crispEdges"/><rect fill="#1a1b26" x="24.4" y="123.5" width="0" height="24.65" shape-rendering="crispEdges"/><rect fill="#1a1b26" x="24.4" y="123.5" width="1183.4" height="24.65" shape-rendering="crispEdges"/><rect fill="#1a1b26" x="1207.8" y="123.5" width="12.2" height="24.65" shape-rendering="crispEdges"/><rect fill="#1a1b26" x="0" y="147.9" width="12.2" height="24.65" shape-rendering="crispEdges"/><rect fill="#1a1b26" x="12.2" y="147.9" width="12.2" height="24.65" shape-rendering="crispEdges"/><rect fill="#302430" x="24.4" y="147.9" width="61" height="24.65" shape-rendering="crispEdges"/><rect fill="#302430" x="85.4" y="147.9" width="24.4" height="24.65" shape-rendering="crispEdges"/><rect fill="#302430" x="109.8" y="147.9" width="109.8" height="24.65" shape-rendering="crispEdges"/><rect fill="#302430" x="219.6" y="147.9" width="12.2" height="24.65" shape-rendering="crispEdges"/><rect fill="#302430" x="231.8" y="147.9" width="12.2" height="24.65" shape-rendering="crispEdges"/><rect fill="#302430" x="244" y="147.9" width="12.2" height="24.65" shape-rendering="crispEdges"/><rect fill="#302430" x="256.2" y="147.9" width="36.6" height="24.65" shape-rendering="crispEdges"/><rect fill="#302430" x="292.8" y="147.9" width="902.8" height="24.65" shape-rendering="crispEdges"/><rect fill="#1a1b26" x="1195.6" y="147.9" width="12.2" height="24.65" shape-rendering="crispEdges"/><rect fill="#1a1b26" x="1207.8" y="147.9" width="12.2" height="24.65" shape-rendering="crispEdges"/><rect fill="#1a1b26" x="0" y="172.3" width="12.2" height="24.65" shape-rendering="crispEdges"/><rect fill="#1a1b26" x="12.2" y="172.3" width="12.2" height="24.65" shape-rendering="crispEdges"/><rect fill="#272c2c" x="24.4" y="172.3" width="61" height="24.65" shape-rendering="crispEdges"/><rect fill="#272c2c" x="85.4" y="172.3" width="24.4" height="24.65" shape-rendering="crispEdges"/><rect fill="#272c2c" x="109.8" y="172.3" width="109.8" height="24.65" shape-rendering="crispEdges"/><rect fill="#272c2c" x="219.6" y="172.3" width="12.2" height="24.65" shape-rendering="crispEdges"/><rect fill="#272c2c" x="231.8" y="172.3" width="12.2" height="24.65" shape-rendering="crispEdges"/><rect fill="#272c2c" x="244" y="172.3" width="12.2" height="24.65" shape-rendering="crispEdges"/><rect fill="#272c2c" x="256.2" y="172.3" width="36.6" height="24.65" shape-rendering="crispEdges"/><rect fill="#272c2c" x="292.8" y="172.3" width="902.8" height="24.65" shape-rendering="crispEdges"/><rect fill="#1a1b26" x="1195.6" y="172.3" width="12.2" height="24.65" shape-rendering="crispEdges"/><rect fill="#1a1b26" x="1207.8" y="172.3" width="12.2" height="24.65" shape-rendering="crispEdges"/><rect fill="#1a1b26" x="0" y="196.7" width="12.2" height="24.65" shape-rendering="crispEdges"/><rect fill="#1a1b26" x="12.2" y="196.7" width="12.2" height="24.65" shape-rendering="crispEdges"/><rect fill="#1a1b26" x="24.4" y="196.7" width="61" height="24.65" shape-rendering="crispEdges"/><rect fill="#1a1b26" x="85.4" y="196.7" width="24.4" height="24.65" shape-rendering="crispEdges"/><rect fill="#1a1b26" x="109.8" y="196.7" width="85.4" height="24.65" shape-rendering="crispEdges"/><rect fill="#1a1b26" x="195.2" y="196.7" width="12.2" height="24.65" shape-rendering="crispEdges"/><rect fill="#1a1b26" x="207.4" y="196.7" width="12.2" height="24.65" shape-rendering="crispEdges"/><rect fill="#1a1b26" x="219.6" y="196.7" width="12.2" height="24.65" shape-rendering="crispEdges"/><rect fill="#1a1b26" x="231.8" y="196.7" width="24.4" height="24.65" shape-rendering="crispEdges"/><rect fill="#1a1b26" x="256.2" y="196.7" width="951.6" height="24.65" shape-rendering="crispEdges"/><rect fill="#1a1b26" x="1207.8" y="196.7" width="12.2" height="24.65" shape-rendering="crispEdges"/><rect fill="#1a1b26" x="0" y="221.1" width="12.2" height="24.65" shape-rendering="crispEdges"/><rect fill="#1a1b26" x="12.2" y="221.1" width="12.2" height="24.65" shape-rendering="crispEdges"/><rect fill="#1a1b26" x="24.4" y="221.1" width="0" height="24.65" shape-rendering="crispEdges"/><rect fill="#1a1b26" x="24.4" y="221.1" width="1183.4" height="24.65" shape-rendering="crispEdges"/><rect fill="#1a1b26" x="1207.8" y="221.1" width="12.2" height="24.65" shape-rendering="crispEdges"/><rect fill="#1a1b26" x="0" y="245.5" width="12.2" height="24.65" shape-rendering="crispEdges"/><rect fill="#1a1b26" x="12.2" y="245.5" width="12.2" height="24.65" shape-rendering="crispEdges"/><rect fill="#1a1b26" x="24.4" y="245.5" width="183" height="24.65" shape-rendering="crispEdges"/><rect fill="#1a1b26" x="207.4" y="245.5" width="1000.4" height="24.65" shape-rendering="crispEdges"/><rect fill="#1a1b26" x="1207.8" y="245.5" width="12.2" height="24.65" shape-rendering="crispEdges"/><rect fill="#1a1b26" x="0" y="269.9" width="12.2" height="24.65" shape-rendering="crispEdges"/><rect fill="#1a1b26" x="12.2" y="269.9" width="1195.6" height="24.65" shape-rendering="crispEdges"/><rect fill="#1a1b26" x="1207.8" y="269.9" width="12.2" height="24.65" shape-rendering="crispEdges"/><rect fill="#1a1b26" x="0" y="294.3" width="12.2" height="24.65" shape-rendering="crispEdges"/><rect fill="#1a1b26" x="12.2" y="294.3" width="12.2" height="24.65" shape-rendering="crispEdges"/><rect fill="#1a1b26" x="24.4" y="294.3" width="488" height="24.65" shape-rendering="crispEdges"/><rect fill="#1a1b26" x="512.4" y="294.3" width="695.4" height="24.65" shape-rendering="crispEdges"/><rect fill="#1a1b26" x="1207.8" y="294.3" width="12.2" height="24.65" shape-rendering="crispEdges"/><rect fill="#1a1b26" x="0" y="318.7" width="12.2" height="24.65" shape-rendering="crispEdges"/><rect fill="#1a1b26" x="12.2" y="318.7" width="1195.6" height="24.65" shape-rendering="crispEdges"/><rect fill="#1a1b26" x="1207.8" y="318.7" width="12.2" height="24.65" shape-rendering="crispEdges"/><rect fill="#1a1b26" x="0" y="343.1" width="12.2" height="24.65" shape-rendering="crispEdges"/><rect fill="#1a1b26" x="12.2" y="343.1" width="12.2" height="24.65" shape-rendering="crispEdges"/><rect fill="#1a1b26" x="24.4" y="343.1" width="207.4" height="24.65" shape-rendering="crispEdges"/><rect fill="#1a1b26" x="231.8" y="343.1" width="976" height="24.65" shape-rendering="crispEdges"/><rect fill="#1a1b26" x="1207.8" y="343.1" width="12.2" height="24.65" shape-rendering="crispEdges"/><rect fill="#1a1b26" x="0" y="367.5" width="12.2" height="24.65" shape-rendering="crispEdges"/><rect fill="#1a1b26" x="12.2" y="367.5" width="1195.6" height="24.65" shape-rendering="crispEdges"/><rect fill="#1a1b26" x="1207.8" y="367.5" width="12.2" height="24.65" shape-rendering="crispEdges"/><rect fill="#1a1b26" x="0" y="391.9" width="12.2" height="24.65" shape-rendering="crispEdges"/><rect fill="#1a1b26" x="12.2" y="391.9" width="12.2" height="24.65" shape-rendering="crispEdges"/><rect fill="#1a1b26" x="24.4" y="391.9" width="109.8" height="24.65" shape-rendering="crispEdges"/><rect fill="#1a1b26" x="134.2" y="391.9" width="1073.6" height="24.65" shape-rendering="crispEdges"/><rect fill="#1a1b26" x="1207.8" y="391.9" width="12.2" height="24.65" shape-rendering="crispEdges"/><rect fill="#1a1b26" x="0" y="416.3" width="12.2" height="24.65" shape-rendering="crispEdges"/><rect fill="#1a1b26" x="12.2" y="416.3" width="1195.6" height="24.65" shape-rendering="crispEdges"/><rect fill="#1a1b26" x="1207.8" y="416.3" width="12.2" height="24.65" shape-rendering="crispEdges"/><rect fill="#1a1b26" x="0" y="440.7" width="12.2" height="24.65" shape-rendering="crispEdges"/><rect fill="#1a1b26" x="12.2" y="440.7" width="12.2" height="24.65" shape-rendering="crispEdges"/><rect fill="#1a1b26" x="24.4" y="440.7" width="451.4" height="24.65" shape-rendering="crispEdges"/><rect fill="#1a1b26" x="475.8" y="440.7" width="732" height="24.65" shape-rendering="crispEdges"/><rect fill="#1a1b26" x="1207.8" y="440.7" width="12.2" height="24.65" shape-rendering="crispEdges"/><rect fill="#1a1b26" x="0" y="465.1" width="1220" height="24.65" shape-rendering="crispEdges"/><rect fill="#1a1b26" x="0" y="489.5" width="158.6" height="24.65" shape-rendering="crispEdges"/><rect fill="#1a1b26" x="158.6" y="489.5" width="0" height="24.65" shape-rendering="crispEdges"/><rect fill="#1a1b26" x="158.6" y="489.5" width="854" height="24.65" shape-rendering="crispEdges"/><rect fill="#1a1b26" x="1012.6" y="489.5" width="207.4" height="24.65" shape-rendering="crispEdges"/><rect fill="#1a1b26" x="0" y="513.9" width="1220" height="24.65" shape-rendering="crispEdges"/><rect fill="#1a1b26" x="0" y="538.3" width="1220" height="24.65" shape-rendering="crispEdges"/><rect fill="#1a1b26" x="0" y="562.7" width="1220" height="24.65" shape-rendering="crispEdges"/><rect fill="#1a1b26" x="0" y="587.1" width="1220" height="24.65" shape-rendering="crispEdges"/><rect fill="#1a1b26" x="0" y="611.5" width="1220" height="24.65" shape-rendering="crispEdges"/><rect fill="#1a1b26" x="0" y="635.9" width="1220" height="24.65" shape-rendering="crispEdges"/><rect fill="#1a1b26" x="0" y="660.3" width="1220" height="24.65" shape-rendering="crispEdges"/><rect fill="#1a1b26" x="0" y="684.7" width="1220" height="24.65" shape-rendering="crispEdges"/><rect fill="#1a1b26" x="0" y="709.1" width="1220" height="24.65" shape-rendering="crispEdges"/>
    <g class="terminal-matrix">
    <text class="terminal-r1" x="1220" y="20" textLength="12.2" clip-path="url(#terminal-line-0)">
</text><text class="terminal-r1" x="1220" y="44.4" textLength="12.2" clip-path="url(#terminal-line-1)">
</text><text class="terminal-r3" x="0" y="68.8" textLength="1220" clip-path="url(#terminal-line-2)">┌──────────────────────────────────────────────────────────────────────────────────────────────────┐</text><text class="terminal-r1" x="1220" y="68.8" textLength="12.2" clip-path="url(#terminal-line-2)">
</text><text class="terminal-r3" x="0" y="93.2" textLength="12.2" clip-path="url(#terminal-line-3)">│</text><text class="terminal-r4" x="24.4" y="93.2" textLength="341.6" clip-path="url(#terminal-line-3)">Permission&#160;for&#160;the&#160;edit&#160;tool</text><text class="terminal-r3" x="1207.8" y="93.2" textLength="12.2" clip-path="url(#terminal-line-3)">│</text><text class="terminal-r1" x="1220" y="93.2" textLength="12.2" clip-path="url(#terminal-line-3)">
</text><text class="terminal-r3" x="0" y="117.6" textLength="12.2" clip-path="url(#terminal-line-4)">│</text><text class="terminal-r5" x="24.4" y="117.6" textLength="244" clip-path="url(#terminal-line-4)">File:&#160;src/example.py</text><text class="terminal-r3" x="1207.8" y="117.6" textLength="12.2" clip-path="url(#terminal-line-4)">│</text><text class="terminal-r1" x="1220" y="117.6" textLength="12.2" clip-path="url(#terminal-line-4)">
</text><text class="terminal-r3" x="0" y="142" textLength="12.2" clip-path="url(#terminal-line-5)">│</text><text class="terminal-r3" x="1207.8" y="142" textLength="12.2" clip-path="url(#terminal-line-5)">│</text><text class="terminal-r1" x="1220" y="142" textLength="12.2" clip-path="url(#terminal-line-5)">
</text><text class="terminal-r3" x="0" y="166.4" textLength="12.2" clip-path="url(#terminal-line-6)">│</text><text class="terminal-r6" x="24.4" y="166.4" textLength="61" clip-path="url(#terminal-line-6)">&#160;&#160;&#160;4&#160;</text><text class="terminal-r7" x="85.4" y="166.4" textLength="24.4" clip-path="url(#terminal-line-6)">-&#160;</text><text class="terminal-r8" x="109.8" y="166.4" textLength="109.8" clip-path="url(#terminal-line-6)">MAX_USERS</text><text class="terminal-r10" x="231.8" y="166.4" textLength="12.2" clip-path="url(#terminal-line-6)">=</text><text class="terminal-r11" x="256.2" y="166.4" textLength="36.6" clip-path="url(#terminal-line-6)">100</text><text class="terminal-r3" x="1207.8" y="166.4" textLength="12.2" clip-path="url(#terminal-line-6)">│</text><text class="terminal-r1" x="1220" y="166.4" textLength="12.2" clip-path="url(#terminal-line-6)">
</text><text class="terminal-r3" x="0" y="190.8" textLength="12.2" clip-path="url(#terminal-line-7)">│</text><text class="terminal-r12" x="24.4" y="190.8" textLength="61" clip-path="url(#terminal-line-7)">&#160;&#160;&#160;4&#160;</text><text class="terminal-r13" x="85.4" y="190.8" textLength="24.4" clip-path="url(#terminal-line-7)">+&#160;</text><text class="terminal-r8" x="109.8" y="190.8" textLength="109.8" clip-path="url(#terminal-line-7)">MAX_USERS</text><text class="terminal-r10" x="231.8" y="190.8" textLength="12.2" clip-path="url(#terminal-line-7)">=</text><text class="terminal-r11" x="256.2" y="190.8" textLength="36.6" clip-path="url(#terminal-line-7)">200</text><text class="terminal-r3" x="1207.8" y="190.8" textLength="12.2" clip-path="url(#terminal-line-7)">│</text><text class="terminal-r1" x="1220" y="190.8" textLength="12.2" clip-path="url(#terminal-line-7)">
</text><text class="terminal-r3" x="0" y="215.2" textLength="12.2" clip-path="url(#terminal-line-8)">│</text><text class="terminal-r14" x="24.4" y="215.2" textLength="61" clip-path="url(#terminal-line-8)">&#160;&#160;&#160;5&#160;</text><text class="terminal-r8" x="109.8" y="215.2" textLength="85.4" clip-path="url(#terminal-line-8)">TIMEOUT</text><text class="terminal-r10" x="207.4" y="215.2" textLength="12.2" clip-path="url(#terminal-line-8)">=</text><text class="terminal-r11" x="231.8" y="215.2" textLength="24.4" clip-path="url(#terminal-line-8)">30</text><text class="terminal-r3" x="1207.8" y="215.2" textLength="12.2" clip-path="url(#terminal-line-8)">│</text><text class="terminal-r1" x="1220" y="215.2" textLength="12.2" clip-path="url(#terminal-line-8)">
</text><text class="terminal-r3" x="0" y="239.6" textLength="12.2" clip-path="url(#terminal-line-9)">│</text><text class="terminal-r3" x="1207.8" y="239.6" textLength="12.2" clip-path="url(#terminal-line-9)">│</text><text class="terminal-r1" x="1220" y="239.6" textLength="12.2" clip-path="url(#terminal-line-9)">
</text><text class="terminal-r3" x="0" y="264" textLength="12.2" clip-path="url(#terminal-line-10)">│</text><text class="terminal-r15" x="24.4" y="264" textLength="183" clip-path="url(#terminal-line-10)">›&#160;1.&#160;Allow&#160;once</text><text class="terminal-r3" x="1207.8" y="264" textLength="12.2" clip-path="url(#terminal-line-10)">│</text><text class="terminal-r1" x="1220" y="264" textLength="12.2" clip-path="url(#terminal-line-10)">
</text><text class="terminal-r3" x="0" y="288.4" textLength="12.2" clip-path="url(#terminal-line-11)">│</text><text class="terminal-r3" x="1207.8" y="288.4" textLength="12.2" clip-path="url(#terminal-line-11)">│</text><text class="terminal-r1" x="1220" y="288.4" textLength="12.2" clip-path="url(#terminal-line-11)">
</text><text class="terminal-r3" x="0" y="312.8" textLength="12.2" clip-path="url(#terminal-line-12)">│</text><text class="terminal-r2" x="24.4" y="312.8" textLength="488" clip-path="url(#terminal-line-12)">&#160;&#160;2.&#160;Allow&#160;for&#160;remainder&#160;of&#160;this&#160;session</text><text class="terminal-r3" x="1207.8" y="312.8" textLength="12.2" clip-path="url(#terminal-line-12)">│</text><text class="terminal-r1" x="1220" y="312.8" textLength="12.2" clip-path="url(#terminal-line-12)">
</text><text class="terminal-r3" x="0" y="337.2" textLength="12.2" clip-path="url(#terminal-line-13)">│</text><text class="terminal-r3" x="1207.8" y="337.2" textLength="12.2" clip-path="url(#terminal-line-13)">│</text><text class="terminal-r1" x="1220" y="337.2" textLength="12.2" clip-path="url(#terminal-line-13)">
</text><text class="terminal-r3" x="0" y="361.6" textLength="12.2" clip-path="url(#terminal-line-14)">│</text><text class="terminal-r2" x="24.4" y="361.6" textLength="207.4" clip-path="url(#terminal-line-14)">&#160;&#160;3.&#160;Always&#160;allow</text><text class="terminal-r3" x="1207.8" y="361.6" textLength="12.2" clip-path="url(#terminal-line-14)">│</text><text class="terminal-r1" x="1220" y="361.6" textLength="12.2" clip-path="url(#terminal-line-14)">
</text><text class="terminal-r3" x="0" y="386" textLength="12.2" clip-path="url(#terminal-line-15)">│</text><text class="terminal-r3" x="1207.8" y="386" textLength="12.2" clip-path="url(#terminal-line-15)">│</text><text class="terminal-r1" x="1220" y="386" textLength="12.2" clip-path="url(#terminal-line-15)">
</text><text class="terminal-r3" x="0" y="410.4" textLength="12.2" clip-path="url(#terminal-line-16)">│</text><text class="terminal-r16" x="24.4" y="410.4" textLength="109.8" clip-path="url(#terminal-line-16)">&#160;&#160;4.&#160;Deny</text><text class="terminal-r3" x="1207.8" y="410.4" textLength="12.2" clip-path="url(#terminal-line-16)">│</text><text class="terminal-r1" x="1220" y="410.4" textLength="12.2" clip-path="url(#terminal-line-16)">
</text><text class="terminal-r3" x="0" y="434.8" textLength="12.2" clip-path="url(#terminal-line-17)">│</text><text class="terminal-r3" x="1207.8" y="434.8" textLength="12.2" clip-path="url(#terminal-line-17)">│</text><text class="terminal-r1" x="1220" y="434.8" textLength="12.2" clip-path="url(#terminal-line-17)">
</text><text class="terminal-r3" x="0" y="459.2" textLength="12.2" clip-path="url(#terminal-line-18)">│</text><text class="terminal-r5" x="24.4" y="459.2" textLength="451.4" clip-path="url(#terminal-line-18)">↑↓&#160;navigate&#160;&#160;Enter&#160;select&#160;&#160;ESC&#160;reject</text><text class="terminal-r3" x="1207.8" y="459.2" textLength="12.2" clip-path="url(#terminal-line-18)">│</text><text class="terminal-r1" x="1220" y="459.2" textLength="12.2" clip-path="url(#terminal-line-18)">
</text><text class="terminal-r3" x="0" y="483.6" textLength="1220" clip-path="url(#terminal-line-19)">└──────────────────────────────────────────────────────────────────────────────────────────────────┘</text><text class="terminal-r1" x="1220" y="483.6" textLength="12.2" clip-path="url(#terminal-line-19)">
</text><text class="terminal-r5" x="0" y="508" textLength="158.6" clip-path="url(#terminal-line-20)">/test/workdir</text><text class="terminal-r5" x="1012.6" y="508" textLength="207.4" clip-path="url(#terminal-line-20)">0%&#160;of&#160;200k&#160;tokens</text><text class="terminal-r1" x="1220" y="508" textLength="12.2" clip-path="url(#terminal-line-20)">
</text><text class="terminal-r1" x="1220" y="532.4" textLength="12.2" clip-path="url(#terminal-line-21)">
</text><text class="terminal-r1" x="1220" y="556.8" textLength="12.2" clip-path="url(#terminal-line-22)">
</text><text class="terminal-r1" x="1220" y="581.2" textLength="12.2" clip-path="url(#terminal-line-23)">
</text><text class="terminal-r1" x="1220" y="605.6" textLength="12.2" clip-path="url(#terminal-line-24)">
</text><text class="terminal-r1" x="1220" y="630" textLength="12.2" clip-path="url(#terminal-line-25)">
</text><text class="terminal-r1" x="1220" y="654.4" textLength="12.2" clip-path="url(#terminal-line-26)">
</text><text class="terminal-r1" x="1220" y="678.8" textLength="12.2" clip-path="url(#terminal-line-27)">
</text><text class="terminal-r1" x="1220" y="703.2" textLength="12.2" clip-path="url(#terminal-line-28)">
</text>
    </g>
    </g>
</svg>
